HIERARCHY
ROOT Hips
{
	OFFSET -3.958830 18.904000 13.208200
	CHANNELS 6 Xposition Yposition Zposition Zrotation Yrotation Xrotation 
	JOINT LHipJoint
	{
		OFFSET 0.000000 0.000000 0.000000
		CHANNELS 3 Zrotation Yrotation Xrotation
		JOINT LeftUpLeg
		{
			OFFSET 1.800000 -1.400000 0.085000
			CHANNELS 3 Zrotation Yrotation Xrotation
			JOINT LeftLeg
			{
				OFFSET 2.215000 -6.000000 0.000000
				CHANNELS 3 Zrotation Yrotation Xrotation
				JOINT LeftFoot
				{
					OFFSET 2.500000 -6.900000 0.000000
					CHANNELS 3 Zrotation Yrotation Xrotation
					JOINT LeftToeBase
					{
						OFFSET 0.200000 -0.500000 1.950000
						CHANNELS 3 Zrotation Yrotation Xrotation
						End Site
						{
							OFFSET 0.000000 0.000000 0.000000
						}
					}
				}
			}
		}
	}
	JOINT RHipJoint
	{
		OFFSET 0.000000 0.000000 0.000000
		CHANNELS 3 Zrotation Yrotation Xrotation
		JOINT RightUpLeg
		{
			OFFSET -1.800000 -1.400000 0.085000
			CHANNELS 3 Zrotation Yrotation Xrotation
			JOINT RightLeg
			{
				OFFSET -2.215000 -6.000000 0.000000
				CHANNELS 3 Zrotation Yrotation Xrotation
				JOINT RightFoot
				{
					OFFSET -2.500000 -6.900000 0.000000
					CHANNELS 3 Zrotation Yrotation Xrotation
					JOINT RightToeBase
					{
						OFFSET -0.200000 -0.500000 1.950000
						CHANNELS 3 Zrotation Yrotation Xrotation
						End Site
						{
							OFFSET 0.000000 0.000000 0.000000
						}
					}
				}
			}
		}
	}
	JOINT LowerBack
	{
		OFFSET 0.000000 0.000000 0.000000
		CHANNELS 3 Zrotation Yrotation Xrotation
		JOINT Spine
		{
			OFFSET -0.087000 1.940000 -0.288900
			CHANNELS 3 Zrotation Yrotation Xrotation
			JOINT Spine1
			{
				OFFSET 0.000000 1.950000 0.060000
				CHANNELS 3 Zrotation Yrotation Xrotation
				JOINT Neck
				{
					OFFSET 0.000000 0.000000 0.000000
					CHANNELS 3 Zrotation Yrotation Xrotation
					JOINT Neck1
					{
						OFFSET 0.000000 1.600000 0.340000
						CHANNELS 3 Zrotation Yrotation Xrotation
						JOINT Head
						{
							OFFSET 0.000000 1.667000 -0.240000
							CHANNELS 3 Zrotation Yrotation Xrotation
							End Site
							{
								OFFSET 0.000000 0.000000 0.000000
							}
						}
					}
				}
				JOINT LeftShoulder
				{
					OFFSET 0.000000 0.000000 0.000000
					CHANNELS 3 Zrotation Yrotation Xrotation
					JOINT LeftArm
					{
						OFFSET 2.700000 1.550000 -0.730000
						CHANNELS 3 Zrotation Yrotation Xrotation
						JOINT LeftForeArm
						{
							OFFSET 5.450000 0.000000 0.000000
							CHANNELS 3 Zrotation Yrotation Xrotation
							JOINT LeftHand
							{
								OFFSET 3.450000 0.000000 0.000000
								CHANNELS 3 Zrotation Yrotation Xrotation
								JOINT LeftHandIndex1
								{
									OFFSET 0.750000 0.000000 0.000000
									CHANNELS 3 Zrotation Yrotation Xrotation
									End Site
									{
										OFFSET 0.000000 0.000000 0.000000
									}
								}
							}
						}
					}
				}
				JOINT RightShoulder
				{
					OFFSET 0.000000 0.000000 0.000000
					CHANNELS 3 Zrotation Yrotation Xrotation
					JOINT RightArm
					{
						OFFSET -2.700000 1.550000 -0.730000
						CHANNELS 3 Zrotation Yrotation Xrotation
						JOINT RightForeArm
						{
							OFFSET -5.450000 0.000000 0.000000
							CHANNELS 3 Zrotation Yrotation Xrotation
							JOINT RightHand
							{
								OFFSET -3.450000 0.000000 0.000000
								CHANNELS 3 Zrotation Yrotation Xrotation
								JOINT RightHandIndex1
								{
									OFFSET -0.750000 0.000000 0.000000
									CHANNELS 3 Zrotation Yrotation Xrotation
									End Site
									{
										OFFSET 0.000000 0.000000 0.000000
									}
								}
							}
						}
					}
				}
			}
		}
	}
}
MOTION
Frames: 6
Frame Time: 0.016667
-0.101030 17.265700 -0.820710 -3.422586 -3.335370 7.424175 -15.185560 12.642785 2.854876 -0.115313 -0.769260 -7.058387 -4.500945 3.288870 1.416124 -0.837526 4.527196 3.584240 -0.180920 -0.635770 -0.274400 18.445836 -10.624644 2.969778 0.595835 0.347073 -7.945680 8.140430 -4.669891 2.719627 -0.391261 -3.966880 2.976566 -0.125230 1.345920 0.895710 -3.782963 -0.923878 -6.967695 8.363382 1.731364 1.825665 -2.198316 1.257624 7.478867 2.763928 -1.242466 -9.077253 -2.330143 6.537789 27.228657 -5.212480 5.515770 -4.559440 -16.801173 -10.151662 4.064393 -51.924701 -9.454785 1.162162 -28.777382 -21.154984 2.303421 -4.570983 2.762933 0.668200 0.809610 -0.103590 0.437620 11.881193 11.710022 5.665014 54.171920 11.226349 -1.482899 32.970009 24.790762 4.391157 1.918066 -1.423302 -0.586040 0.519970 0.445010 0.082160 
-0.101090 17.264610 -0.820290 -3.461288 -3.322928 7.436550 -15.185066 12.639554 2.853748 -0.074453 -0.776246 -7.069809 -4.475452 3.276209 1.361348 -0.841817 4.525901 3.583882 -0.178480 -0.633610 -0.271650 18.447211 -10.624311 2.971037 0.657200 0.345074 -7.933822 8.095867 -4.661786 2.702235 -0.392406 -3.964324 2.977043 -0.122910 1.344280 0.895630 -3.785648 -0.918051 -6.967084 8.398513 1.736755 1.816972 -2.180917 1.256086 7.486766 2.771466 -1.223701 -9.070692 -2.292454 6.521227 27.189758 -5.227740 5.513820 -4.655890 -16.697398 -10.108575 4.052977 -52.061799 -9.496635 1.176387 -28.766542 -21.201615 2.307671 -4.570663 2.761714 0.670810 0.808870 -0.102330 0.437320 11.762803 11.649421 5.648182 54.250697 11.256117 -1.461459 33.043477 24.807292 4.409812 1.915835 -1.423939 -0.587210 0.521120 0.444540 0.080300 
-0.101280 17.264140 -0.819830 -3.453292 -3.253260 7.440541 -15.187557 12.642374 2.851826 -0.064045 -0.782679 -7.109056 -4.463126 3.273763 1.389362 -0.845787 4.522898 3.583547 -0.172640 -0.628260 -0.267880 18.445179 -10.620287 2.972366 0.675289 0.340282 -7.899494 8.057222 -4.649454 2.645282 -0.396037 -3.962502 2.976440 -0.119550 1.341410 0.896740 -3.779438 -0.929482 -6.966549 8.351672 1.715715 1.822591 -2.101359 1.229322 7.479616 2.745969 -1.230947 -9.058223 -2.306306 6.502577 27.140363 -5.186540 5.461970 -4.807150 -16.619803 -10.058410 4.036612 -52.232856 -9.547658 1.193220 -28.703426 -21.245394 2.300461 -4.567881 2.762446 0.674370 0.806090 -0.099380 0.438490 11.740753 11.601325 5.629397 54.228358 11.250603 -1.451900 33.131582 24.796415 4.427134 1.914072 -1.424923 -0.586330 0.521780 0.442660 0.079240 
-0.101620 17.264900 -0.819310 -3.406321 -3.139956 7.399839 -15.192385 12.653308 2.850447 -0.068548 -0.781331 -7.140964 -4.472597 3.287165 1.499687 -0.847774 4.519875 3.580154 -0.168510 -0.624590 -0.264310 18.439464 -10.614544 2.974489 0.652670 0.327174 -7.821566 8.034651 -4.643477 2.579294 -0.402484 -3.960511 2.973405 -0.119560 1.334470 0.898150 -3.764582 -0.958170 -6.970595 8.238967 1.682186 1.867803 -1.998613 1.196196 7.474883 2.714353 -1.245690 -9.069578 -2.350732 6.488451 27.234503 -5.122870 5.412100 -5.023470 -16.607398 -10.084339 4.052782 -52.321424 -9.552191 1.168210 -28.651161 -21.297936 2.289581 -4.561163 2.762809 0.681330 0.798690 -0.092610 0.437060 11.799439 11.639097 5.633105 54.131601 11.235555 -1.461858 33.183265 24.708711 4.425262 1.916078 -1.420352 -0.583560 0.520890 0.442680 0.078090 
-0.101410 17.266660 -0.818740 -3.388367 -3.039987 7.340044 -15.195569 12.660088 2.851193 -0.066441 -0.774589 -7.102226 -4.451693 3.288827 1.513293 -0.848644 4.515200 3.577726 -0.162360 -0.619510 -0.255950 18.436125 -10.607503 2.979227 0.642339 0.304778 -7.692947 8.011243 -4.632540 2.451582 -0.411216 -3.957271 2.973726 -0.119780 1.322780 0.894990 -3.755656 -0.981991 -6.980081 8.200817 1.650971 1.919974 -1.960077 1.168716 7.483998 2.707252 -1.252842 -9.095950 -2.390828 6.469301 27.446641 -5.063870 5.384630 -5.303590 -16.646864 -10.164110 4.082323 -52.322716 -9.546516 1.142823 -28.669438 -21.320090 2.288670 -4.549736 2.758112 0.692020 0.787360 -0.083930 0.434600 11.855413 11.719585 5.659433 54.082862 11.221016 -1.494567 33.160253 24.668126 4.420149 1.918463 -1.411290 -0.581910 0.522140 0.440010 0.074040 
-0.100870 17.268430 -0.819940 -3.373064 -2.993891 7.294015 -15.196155 12.667169 2.850304 -0.070907 -0.770624 -7.121205 -4.457614 3.300698 1.603190 -0.852584 4.511133 3.577211 -0.160350 -0.615990 -0.252780 18.434192 -10.607500 2.980729 0.616463 0.294045 -7.645524 8.003628 -4.633231 2.433915 -0.415115 -3.954490 2.974167 -0.118210 1.317750 0.890850 -3.752120 -0.994370 -6.984203 8.188195 1.630245 1.969136 -1.956453 1.155546 7.503556 2.705046 -1.261512 -9.114083 -2.421490 6.465958 27.572500 -5.038290 5.375640 -5.493420 -16.654875 -10.237106 4.107714 -52.328640 -9.562956 1.126127 -28.720494 -21.369397 2.300468 -4.542364 2.751437 0.699590 0.781050 -0.078420 0.434010 11.867973 11.797559 5.671858 54.066638 11.275550 -1.486190 33.136330 24.626733 4.411860 1.920389 -1.403842 -0.584380 0.526530 0.438170 0.072550 
